<svg width="168" height="165" viewBox="0 0 168 165" fill="none" xmlns="http://www.w3.org/2000/svg">
<ellipse cx="84" cy="82.5" rx="84" ry="82.5" fill="#798D70"/>
<path d="M50.25 105.5H78.375V111.125H50.25V105.5ZM50.25 88.625H78.375V94.25H50.25V88.625ZM112.125 77.375H55.875C54.3832 77.375 52.9524 76.7824 51.8975 75.7275C50.8426 74.6726 50.25 73.2418 50.25 71.75V54.875C50.25 53.3832 50.8426 51.9524 51.8975 50.8975C52.9524 49.8426 54.3832 49.25 55.875 49.25H112.125C113.617 49.25 115.048 49.8426 116.102 50.8975C117.157 51.9524 117.75 53.3832 117.75 54.875V71.75C117.75 73.2418 117.157 74.6726 116.102 75.7275C115.048 76.7824 113.617 77.375 112.125 77.375ZM55.875 54.875V71.75H112.125V54.875H55.875ZM112.125 116.75H95.25C93.7582 116.75 92.3274 116.157 91.2725 115.102C90.2176 114.048 89.625 112.617 89.625 111.125V94.25C89.625 92.7582 90.2176 91.3274 91.2725 90.2725C92.3274 89.2176 93.7582 88.625 95.25 88.625H112.125C113.617 88.625 115.048 89.2176 116.102 90.2725C117.157 91.3274 117.75 92.7582 117.75 94.25V111.125C117.75 112.617 117.157 114.048 116.102 115.102C115.048 116.157 113.617 116.75 112.125 116.75ZM95.25 94.25V111.125H112.125V94.25H95.25Z" fill="#E6CCD1"/>
</svg>
